<svg version="1.2" baseProfile="tiny-ps" xmlns="http://www.w3.org/2000/svg" viewBox="0 0 513 513" width="513" height="513">
	<title>bonus-svg</title>
	<style>
		tspan { white-space:pre }
		.shp0 { fill: #000000 } 
	</style>
	<g id="Layer">
		<g id="Layer">
			<path id="Layer" fill-rule="evenodd" class="shp0" d="M183.57 206C200.11 206 213.57 219.46 213.57 236L213.57 276C213.57 292.54 200.11 306 183.57 306C167.03 306 153.57 292.54 153.57 276L153.57 236C153.57 219.46 167.03 206 183.57 206ZM193.57 236C193.57 230.49 189.08 226 183.57 226C178.05 226 173.57 230.49 173.57 236L173.57 276C173.57 281.51 178.05 286 183.57 286C189.08 286 193.57 281.51 193.57 276L193.57 236Z" />
			<path id="Layer" class="shp0" d="M278.57 206C273.04 206 268.57 210.48 268.57 216L268.57 253.64L247.51 211.53C245.44 207.38 240.78 205.2 236.27 206.27C231.76 207.33 228.57 211.36 228.57 216L228.57 296C228.57 301.52 233.04 306 238.57 306C244.09 306 248.57 301.52 248.57 296L248.57 258.36L269.62 300.47C271.34 303.92 274.84 306 278.56 306C279.33 306 280.1 305.91 280.86 305.73C285.38 304.67 288.57 300.64 288.57 296L288.57 216C288.57 210.48 284.09 206 278.57 206Z" />
			<path id="Layer" class="shp0" d="M353.57 206C348.04 206 343.57 210.48 343.57 216L343.57 276C343.57 281.51 339.08 286 333.57 286C328.05 286 323.57 281.51 323.57 276L323.57 216C323.57 210.48 319.09 206 313.57 206C308.04 206 303.57 210.48 303.57 216L303.57 276C303.57 292.54 317.03 306 333.57 306C350.11 306 363.57 292.54 363.57 276L363.57 216C363.57 210.48 359.09 206 353.57 206L353.57 206Z" />
			<path id="Layer" fill-rule="evenodd" class="shp0" d="M113.57 206C130.11 206 143.57 219.46 143.57 236C143.57 243.68 140.67 250.69 135.91 256C140.67 261.31 143.57 268.32 143.57 276C143.57 292.54 130.11 306 113.57 306L93.57 306C88.04 306 83.57 301.52 83.57 296L83.57 216C83.57 210.48 88.04 206 93.57 206L113.57 206ZM103.57 226L103.57 246L113.57 246C119.08 246 123.57 241.51 123.57 236C123.57 230.49 119.08 226 113.57 226L103.57 226ZM123.57 276C123.57 270.49 119.08 266 113.57 266L103.57 266L103.57 286L113.57 286C119.08 286 123.57 281.52 123.57 276Z" />
			<path id="Layer" class="shp0" d="M410.14 248.96L399.5 244.56C397.14 243.58 395.3 241.72 394.3 239.33C393.31 236.93 393.3 234.31 394.28 231.95C396.32 227.03 401.98 224.69 406.89 226.73L412.21 228.93C417.31 231.04 423.16 228.62 425.27 223.52C427.39 218.41 424.96 212.57 419.86 210.45L414.54 208.25C399.44 202 382.06 209.19 375.8 224.3C372.78 231.6 372.79 239.65 375.83 246.98C378.86 254.31 384.55 260.02 391.85 263.04L402.48 267.44C407.4 269.48 409.74 275.14 407.71 280.05C406.73 282.41 404.87 284.26 402.48 285.25C400.08 286.25 397.46 286.25 395.1 285.27L389.78 283.07C384.68 280.96 378.83 283.38 376.72 288.48C374.6 293.59 377.03 299.44 382.13 301.55L387.45 303.75C391.09 305.26 394.91 306.01 398.75 306.01C402.6 306.01 406.46 305.25 410.13 303.73C417.46 300.69 423.16 295 426.19 287.7C432.44 272.6 425.24 255.22 410.14 248.96L410.14 248.96Z" />
			<path id="Layer" fill-rule="evenodd" class="shp0" d="M511.22 332.13C512.52 335.22 512.18 338.75 510.33 341.54C508.48 344.32 505.35 346 502 346L466.22 346L478.29 375.18C479.47 378.05 479.26 381.31 477.7 384C476.15 386.69 473.43 388.51 470.35 388.92L398.42 398.42L388.92 470.36C388.51 473.44 386.69 476.15 384 477.71C381.31 479.26 378.05 479.47 375.18 478.29L308.13 450.55L263.93 508.09C262.04 510.56 259.11 512 256 512C252.89 512 249.96 510.56 248.07 508.09L203.87 450.55L136.82 478.29C133.95 479.47 130.69 479.26 128 477.71C125.31 476.15 123.49 473.44 123.09 470.36L113.58 398.42L41.65 388.92C38.57 388.51 35.85 386.69 34.3 384C32.74 381.31 32.53 378.05 33.72 375.18L45.79 346L10 346C6.65 346 3.53 344.32 1.67 341.54C-0.18 338.75 -0.52 335.22 0.78 332.13L32.72 256L0.78 179.87C-0.52 176.78 -0.18 173.25 1.67 170.46C3.53 167.68 6.65 166 10 166L45.78 166L33.72 136.82C32.53 133.95 32.74 130.69 34.3 128C35.85 125.31 38.57 123.49 41.65 123.09L113.58 113.58L123.09 41.65C123.49 38.57 125.31 35.85 128 34.3C130.69 32.74 133.95 32.53 136.82 33.72L203.87 61.45L248.07 3.91C249.96 1.44 252.89 0 256 0C259.11 0 262.04 1.44 263.93 3.91L308.13 61.45L375.18 33.72C378.05 32.53 381.31 32.74 384 34.3C386.69 35.85 388.51 38.57 388.92 41.65L398.42 113.58L470.35 123.09C473.44 123.49 476.15 125.31 477.7 128C479.26 130.69 479.47 133.95 478.29 136.82L466.22 166L502 166C505.35 166 508.47 167.68 510.33 170.46C512.18 173.25 512.52 176.78 511.22 179.87L479.28 256L511.22 332.13ZM444.57 346L67.43 346L57.17 370.79L123.8 379.6C128.28 380.19 131.81 383.72 132.4 388.2L141.21 454.83L203.31 429.14C207.49 427.41 212.31 428.7 215.06 432.29L256 485.59L296.94 432.29C299.69 428.7 304.51 427.41 308.69 429.14L370.79 454.83L379.6 388.2C380.19 383.72 383.72 380.19 388.2 379.6L454.83 370.79L444.57 346ZM486.96 326L459.21 259.87C458.17 257.4 458.17 254.61 459.21 252.13L486.96 186L301 186C295.47 186 291 181.52 291 176C291 170.48 295.47 166 301 166L444.58 166L454.83 141.21L388.21 132.4C383.72 131.81 380.19 128.28 379.6 123.8L370.8 57.17L308.69 82.86C304.51 84.59 299.7 83.3 296.94 79.71L256 26.42L215.06 79.71C212.31 83.3 207.49 84.59 203.31 82.86L141.21 57.17L132.4 123.8C131.81 128.28 128.28 131.81 123.8 132.4L57.18 141.21L67.43 166L211 166C216.52 166 221 170.48 221 176C221 181.52 216.52 186 211 186L25.04 186L52.79 252.13C53.83 254.61 53.83 257.39 52.79 259.87L25.04 326L486.96 326Z" />
			<path id="Layer" class="shp0" d="M256 186C261.52 186 266 181.52 266 176C266 170.48 261.52 166 256 166L255.99 166C250.47 166 246 170.48 246 176C246 181.52 250.48 186 256 186Z" />
		</g>
	</g>
</svg>