<svg xmlns="http://www.w3.org/2000/svg" xmlns:xlink="http://www.w3.org/1999/xlink" x="0px" y="0px" viewBox="0 0 471 471" style="enable-background:new 0 0 471 471;" xml:space="preserve">
    <path d="M403.9,370.1c-0.1,0-0.1,0.1-0.2,0.1l-64.9,30.7c0.7,3.6,1,7.2,0.9,10.9c-0.1,3.8-3.2,6.8-7,6.8c-0.1,0-0.1,0-0.2,0l-95-2.6
        c-3.9-0.1-6.9-3.3-6.8-7.2c0.1-3.9,3.3-6.9,7.2-6.8l87.3,2.4c-2.9-16.9-17.3-29.4-34.5-29.9l-57.8-1.6c-11.4-0.3-22.6-3.2-32.7-8.5
        l-5.9-3c-28.9-15-63.6-13.1-90.6,5.1l-2.3,84l9.9-5.3c9.9-5.3,21.4-6.6,32.2-3.5l98,27.5c18.9,3.9,38.5,1.7,56.1-6.3L433.5,375
        C425.8,367.1,413.8,365.1,403.9,370.1z"></path>
<path d="M37.7,465.1l3.4-125l49.4,1.4l-3.4,125L37.7,465.1z"></path>
<path d="M248.6,82.9V7c0-3.9-3.1-7-7-7c-3.9,0-7,3.1-7,7v75.9c0,3.9,3.1,7,7,7C245.4,89.9,248.6,86.7,248.6,82.9z"></path>
<path d="M308.5,82.9V46.9c0-3.9-3.1-7-7-7c-3.9,0-7,3.1-7,7v35.9c0,3.9,3.1,7,7,7C305.3,89.9,308.5,86.7,308.5,82.9z"></path>
<path d="M188.7,82.9V46.9c0-3.9-3.1-7-7-7c-3.9,0-7,3.1-7,7v35.9c0,3.9,3.1,7,7,7C185.5,89.9,188.7,86.7,188.7,82.9z"></path>
<g>
<path d="M263.6,177.1h-28.7v40.2h28.7c6.3,0,11.5-1.9,15.3-5.6c3.9-3.7,5.8-8.6,5.8-14.5c0-6-1.9-10.8-5.8-14.5
            C275,179,269.9,177.1,263.6,177.1z"></path>
<path d="M242,120.3c-55.7,0.1-100.8,45.2-100.9,100.9c0,55.7,45.2,100.9,100.9,100.9s100.9-45.2,100.9-100.9
            C342.9,165.5,297.7,120.3,242,120.3z M294.7,225.5c-7.6,7.3-17.3,10.9-29.3,10.9h-30.5V247h45.3c0.8,0,1.5,0.3,2.1,0.8
            c0.5,0.5,0.8,1.2,0.8,2.1v11.5c0,0.8-0.3,1.5-0.8,2.1c-0.5,0.5-1.2,0.8-2.1,0.8h-45.3v17.2c0,0.8-0.3,1.5-0.9,2.1
            c-0.6,0.5-1.2,0.8-2,0.8h-15c-0.8,0-1.5-0.3-2.1-0.8c-0.5-0.5-0.8-1.2-0.8-2.1v-17.2H194c-0.8,0-1.5-0.3-2.1-0.8
            c-0.5-0.5-0.8-1.2-0.8-2.1v-11.5c0-0.8,0.3-1.5,0.8-2.1c0.5-0.5,1.2-0.8,2.1-0.8h20.1v-10.6H194c-0.8,0-1.5-0.3-2.1-0.8
            c-0.5-0.5-0.8-1.2-0.8-2.1v-13.4c0-0.8,0.3-1.5,0.8-2c0.5-0.6,1.2-0.9,2.1-0.9h20.1v-56.5c0-0.8,0.3-1.5,0.8-2.1
            c0.5-0.5,1.2-0.8,2.1-0.8h48.4c12,0,21.7,3.7,29.3,10.9c7.6,7.3,11.4,16.7,11.4,28.3C306,208.8,302.2,218.2,294.7,225.5z"></path>
</g>
</svg>