<svg version="1.1" id="Слой_1" xmlns="http://www.w3.org/2000/svg" xmlns:xlink="http://www.w3.org/1999/xlink" x="0px" y="0px" viewBox="0 0 487 487" style="enable-background:new 0 0 487 487;" xml:space="preserve">
                                                    <path d="M133.4,222.2c0,64,51.9,115.8,115.8,115.8S365,286.1,365,222.2s-51.9-115.8-115.8-115.8
                                                        C185.3,106.4,133.4,158.2,133.4,222.2z M249.2,122.3c55.2,0,99.9,44.7,99.9,99.9S304.3,322,249.2,322s-99.9-44.7-99.9-99.9
                                                        C149.4,167,194.1,122.4,249.2,122.3z"></path>
        <path d="M404.4,357.7l-62.6,29.6c-8.6-16.1-25.2-26.3-43.5-26.8l-57.8-1.6c-9.1-0.3-18.1-2.6-26.3-6.8l-5.9-3
                                                        c-30.1-15.7-66-15.6-96,0.1l0.4-13.3c0.1-4.4-3.4-8.1-7.8-8.2l-63.3-1.7c-4.4-0.1-8.1,3.4-8.2,7.8l-3.8,139
                                                        c-0.1,4.4,3.4,8.1,7.8,8.2l63.3,1.7h0.2c4.3,0,7.9-3.4,8-7.8l0.2-6.7l16.5-8.8c6.5-3.5,14-4.3,21.1-2.3l98.3,27.6
                                                        c0.2,0.1,0.3,0.1,0.5,0.1c7.1,1.5,14.3,2.2,21.6,2.2c15.4,0,30.6-3.3,44.5-9.7c0.3-0.2,0.7-0.3,1-0.5l142.5-92.2
                                                        c3.5-2.3,4.7-7,2.6-10.6C447.1,355.2,423.7,348,404.4,357.7z M45.9,465.1l3.4-123l47.4,1.3l-3.4,123L45.9,465.1z M304.4,463
                                                        c-17.4,7.8-36.7,10-55.4,6.2l-98-27.5c-11-3.1-22.8-1.8-32.9,3.6l-8.4,4.5l2.3-81.8c26.6-17.7,60.8-19.5,89.2-4.8l5.9,3
                                                        c10.3,5.3,21.6,8.2,33.2,8.6l57.8,1.6c16.2,0.5,30,12,33.3,27.9l-86-2.4c-4.4-0.1-8.1,3.4-8.2,7.8c-0.1,4.4,3.4,8.1,7.8,8.2l95,2.6
                                                        h0.2c4.3,0,7.9-3.4,8-7.8c0.1-3.5-0.2-6.9-0.8-10.4l64.2-30.3c0.1,0,0.1-0.1,0.2-0.1c9.1-4.6,20.1-3.1,27.6,3.9L304.4,463z"></path>
        <path d="M257.2,83.9V8c0-4.4-3.6-8-8-8s-8,3.6-8,8v75.9c0,4.4,3.6,8,8,8S257.2,88.3,257.2,83.9z"></path>
        <path d="M317.1,83.9V47.9c0-4.4-3.6-8-8-8c-4.4,0-8,3.6-8,8v35.9c0,4.4,3.6,8,8,8C313.5,91.9,317.1,88.3,317.1,83.9z"></path>
        <path d="M197.3,83.9V47.9c0-4.4-3.6-8-8-8s-8,3.6-8,8v35.9c0,4.4,3.6,8,8,8S197.3,88.3,197.3,83.9z"></path>
        <g>
            <g>
                <path d="M202.1,264.7h20v17.1c0,0.8,0.3,1.5,0.8,2.1c0.5,0.5,1.2,0.8,2.1,0.8h14.9c0.8,0,1.4-0.3,2-0.8c0.6-0.5,0.8-1.2,0.8-2.1
                                                                v-17.1h45.1c0.8,0,1.5-0.3,2.1-0.8c0.5-0.5,0.8-1.2,0.8-2.1v-11.4c0-0.8-0.3-1.5-0.8-2.1c-0.5-0.5-1.2-0.8-2.1-0.8h-45.1V237h30.4
                                                                c11.9,0,21.6-3.6,29.1-10.9c7.5-7.3,11.3-16.6,11.3-28.1c0-11.5-3.8-20.9-11.3-28.1c-7.5-7.3-17.2-10.9-29.1-10.9H225
                                                                c-0.8,0-1.5,0.3-2.1,0.8c-0.5,0.5-0.8,1.2-0.8,2.1V218h-20c-0.8,0-1.5,0.3-2.1,0.8c-0.5,0.6-0.8,1.2-0.8,2v13.3
                                                                c0,0.8,0.3,1.5,0.8,2.1c0.5,0.5,1.2,0.8,2.1,0.8h20v10.5h-20c-0.8,0-1.5,0.3-2.1,0.8c-0.5,0.5-0.8,1.2-0.8,2.1v11.4
                                                                c0,0.8,0.3,1.5,0.8,2.1C200.6,264.4,201.3,264.7,202.1,264.7z M242.7,178h28.6c6.3,0,11.4,1.8,15.3,5.5c3.9,3.7,5.8,8.5,5.8,14.5
                                                                c0,6-1.9,10.8-5.8,14.5c-3.9,3.7-9,5.5-15.3,5.5h-28.6V178z"></path>
            </g>
        </g>
                                                    </svg>